<?xml version="1.0" encoding="UTF-8"?>
<svg xmlns="http://www.w3.org/2000/svg" width="1100" height="3056" viewBox="0 0 1100 3056">
  <rect x="0" y="0" width="1100" height="3056" fill="white"/>
  <style>
    text {
      font-family: ui-monospace, SFMono-Regular, Menlo, Monaco, Consolas, "Liberation Mono", "Courier New", monospace;
      font-size: 14px;
      fill: #111;
      white-space: pre;
    }
  </style>
<text x="20" y="34">one-zero-eight leaderboard last 6 months 2025-11-02..2026-05-04</text>
<text x="20" y="52"></text>
<text x="20" y="70">Overall top contributors</text>
<text x="20" y="88">rk login                  commits  pr_m  pr_o issues</text>
<text x="20" y="106">------------------------------------------------------------</text>
<text x="20" y="124"> 1 ArtemSBulgakov             204     1     6     19</text>
<text x="20" y="142"> 2 dantetemplar               102     0     0     20</text>
<text x="20" y="160"> 3 ZolotarevAlexandr           68     2     2     11</text>
<text x="20" y="178"> 4 PoweredDeveloper            45     0     0     12</text>
<text x="20" y="196"> 5 dofi4ka                     38     7     7      3</text>
<text x="20" y="214"> 6 danillatency                33     0     0      9</text>
<text x="20" y="232"> 7 thexayotbe                  13     0     0      1</text>
<text x="20" y="250"> 8 github-actions[bot]         13     0     0      0</text>
<text x="20" y="268"> 9 rTexty                       8     0     0      1</text>
<text x="20" y="286">10 FallenChromium               7     0     0      0</text>
<text x="20" y="304">11 keamka                       6     1     2      0</text>
<text x="20" y="322">12 poeticlama                   6     3     3      2</text>
<text x="20" y="340">13 upconett                     6     2     2     62</text>
<text x="20" y="358">14 pe3ep                        2     1     0      0</text>
<text x="20" y="376">15 AzaliaAlisheva               2     1     1      0</text>
<text x="20" y="394">16 arya23923                    1     1     1      0</text>
<text x="20" y="412">17 snyk-bot                     1     0     0      0</text>
<text x="20" y="430">18 evermake                     1     1     0      0</text>
<text x="20" y="448"></text>
<text x="20" y="466">Per repository leaderboards</text>
<text x="20" y="484"></text>
<text x="20" y="502">one-zero-eight/website  commits 221</text>
<text x="20" y="520">rk login                  commits  pr_m  pr_o issues</text>
<text x="20" y="538">------------------------------------------------------------</text>
<text x="20" y="556"> 1 ArtemSBulgakov             119     0     1      4</text>
<text x="20" y="574"> 2 PoweredDeveloper            42     0     0      6</text>
<text x="20" y="592"> 3 dofi4ka                     28     3     3      2</text>
<text x="20" y="610"> 4 thexayotbe                  13     0     0      1</text>
<text x="20" y="628"> 5 keamka                       6     1     2      0</text>
<text x="20" y="646"> 6 poeticlama                   6     0     0      0</text>
<text x="20" y="664"> 7 dantetemplar                 3     0     0      9</text>
<text x="20" y="682"> 8 pe3ep                        2     1     0      0</text>
<text x="20" y="700"> 9 arya23923                    1     1     1      0</text>
<text x="20" y="718">10 danillatency                 1     0     0      0</text>
<text x="20" y="736"></text>
<text x="20" y="754">one-zero-eight/room-booking  commits 79</text>
<text x="20" y="772">rk login                  commits  pr_m  pr_o issues</text>
<text x="20" y="790">------------------------------------------------------------</text>
<text x="20" y="808"> 1 dantetemplar                50     0     0      4</text>
<text x="20" y="826"> 2 ArtemSBulgakov              22     0     0      2</text>
<text x="20" y="844"> 3 ZolotarevAlexandr            4     0     0      0</text>
<text x="20" y="862"> 4 dofi4ka                      3     1     1      0</text>
<text x="20" y="880"></text>
<text x="20" y="898">one-zero-eight/printers  commits 48</text>
<text x="20" y="916">rk login                  commits  pr_m  pr_o issues</text>
<text x="20" y="934">------------------------------------------------------------</text>
<text x="20" y="952"> 1 danillatency                32     0     0      8</text>
<text x="20" y="970"> 2 ArtemSBulgakov               7     0     0      0</text>
<text x="20" y="988"> 3 dantetemplar                 6     0     0      2</text>
<text x="20" y="1006"> 4 PoweredDeveloper             3     0     0      0</text>
<text x="20" y="1024"></text>
<text x="20" y="1042">one-zero-eight/workshops  commits 38</text>
<text x="20" y="1060">rk login                  commits  pr_m  pr_o issues</text>
<text x="20" y="1078">------------------------------------------------------------</text>
<text x="20" y="1096"> 1 ZolotarevAlexandr           33     0     0      6</text>
<text x="20" y="1114"> 2 ArtemSBulgakov               5     0     0      0</text>
<text x="20" y="1132"></text>
<text x="20" y="1150">one-zero-eight/parsers  commits 34</text>
<text x="20" y="1168">rk login                  commits  pr_m  pr_o issues</text>
<text x="20" y="1186">------------------------------------------------------------</text>
<text x="20" y="1204"> 1 ZolotarevAlexandr           18     2     2      1</text>
<text x="20" y="1222"> 2 dantetemplar                15     0     0      0</text>
<text x="20" y="1240"> 3 AzaliaAlisheva               1     1     1      0</text>
<text x="20" y="1258"></text>
<text x="20" y="1276">one-zero-eight/accounts  commits 22</text>
<text x="20" y="1294">rk login                  commits  pr_m  pr_o issues</text>
<text x="20" y="1312">------------------------------------------------------------</text>
<text x="20" y="1330"> 1 dantetemplar                15     0     0      0</text>
<text x="20" y="1348"> 2 ArtemSBulgakov               6     0     0      0</text>
<text x="20" y="1366"> 3 ZolotarevAlexandr            1     0     0      0</text>
<text x="20" y="1384"></text>
<text x="20" y="1402">one-zero-eight/contributors-leaderboard  commits 15</text>
<text x="20" y="1420">rk login                  commits  pr_m  pr_o issues</text>
<text x="20" y="1438">------------------------------------------------------------</text>
<text x="20" y="1456"> 1 github-actions[bot]         13     0     0      0</text>
<text x="20" y="1474"> 2 dantetemplar                 2     0     0      0</text>
<text x="20" y="1492"></text>
<text x="20" y="1510">one-zero-eight/student-affairs  commits 13</text>
<text x="20" y="1528">rk login                  commits  pr_m  pr_o issues</text>
<text x="20" y="1546">------------------------------------------------------------</text>
<text x="20" y="1564"> 1 FallenChromium               7     0     0      0</text>
<text x="20" y="1582"> 2 ArtemSBulgakov               5     0     0      0</text>
<text x="20" y="1600"> 3 ZolotarevAlexandr            1     0     0      0</text>
<text x="20" y="1618"></text>
<text x="20" y="1636">one-zero-eight/schedule-assistant  commits 11</text>
<text x="20" y="1654">rk login                  commits  pr_m  pr_o issues</text>
<text x="20" y="1672">------------------------------------------------------------</text>
<text x="20" y="1690"> 1 dantetemplar                11     0     0      0</text>
<text x="20" y="1708"></text>
<text x="20" y="1726">one-zero-eight/academic-tutorship-bot  commits 11</text>
<text x="20" y="1744">rk login                  commits  pr_m  pr_o issues</text>
<text x="20" y="1762">------------------------------------------------------------</text>
<text x="20" y="1780"> 1 upconett                     6     1     1     59</text>
<text x="20" y="1798"> 2 ZolotarevAlexandr            3     0     0      0</text>
<text x="20" y="1816"> 3 ArtemSBulgakov               2     0     0      0</text>
<text x="20" y="1834"></text>
<text x="20" y="1852">one-zero-eight/clubs  commits 11</text>
<text x="20" y="1870">rk login                  commits</text>
<text x="20" y="1888">--------------------------------------</text>
<text x="20" y="1906"> 1 ArtemSBulgakov              10</text>
<text x="20" y="1924"> 2 ZolotarevAlexandr            1</text>
<text x="20" y="1942"></text>
<text x="20" y="1960">one-zero-eight/sport-bot  commits 9</text>
<text x="20" y="1978">rk login                  commits</text>
<text x="20" y="1996">--------------------------------------</text>
<text x="20" y="2014"> 1 ArtemSBulgakov               6</text>
<text x="20" y="2032"> 2 ZolotarevAlexandr            1</text>
<text x="20" y="2050"> 3 snyk-bot                     1</text>
<text x="20" y="2068"> 4 evermake                     1</text>
<text x="20" y="2086"></text>
<text x="20" y="2104">one-zero-eight/.github  commits 9</text>
<text x="20" y="2122">rk login                  commits</text>
<text x="20" y="2140">--------------------------------------</text>
<text x="20" y="2158"> 1 ArtemSBulgakov               8</text>
<text x="20" y="2176"> 2 ZolotarevAlexandr            1</text>
<text x="20" y="2194"></text>
<text x="20" y="2212">one-zero-eight/broadcast  commits 8</text>
<text x="20" y="2230">rk login                  commits</text>
<text x="20" y="2248">--------------------------------------</text>
<text x="20" y="2266"> 1 rTexty                       8</text>
<text x="20" y="2284"></text>
<text x="20" y="2302">one-zero-eight/forms  commits 7</text>
<text x="20" y="2320">rk login                  commits</text>
<text x="20" y="2338">--------------------------------------</text>
<text x="20" y="2356"> 1 dofi4ka                      4</text>
<text x="20" y="2374"> 2 ArtemSBulgakov               2</text>
<text x="20" y="2392"> 3 ZolotarevAlexandr            1</text>
<text x="20" y="2410"></text>
<text x="20" y="2428">one-zero-eight/guard  commits 6</text>
<text x="20" y="2446">rk login                  commits</text>
<text x="20" y="2464">--------------------------------------</text>
<text x="20" y="2482"> 1 dofi4ka                      3</text>
<text x="20" y="2500"> 2 ArtemSBulgakov               2</text>
<text x="20" y="2518"> 3 ZolotarevAlexandr            1</text>
<text x="20" y="2536"></text>
<text x="20" y="2554">one-zero-eight/chat-helper  commits 5</text>
<text x="20" y="2572">rk login                  commits</text>
<text x="20" y="2590">--------------------------------------</text>
<text x="20" y="2608"> 1 ArtemSBulgakov               4</text>
<text x="20" y="2626"> 2 ZolotarevAlexandr            1</text>
<text x="20" y="2644"></text>
<text x="20" y="2662">one-zero-eight/board-games  commits 3</text>
<text x="20" y="2680">rk login                  commits</text>
<text x="20" y="2698">--------------------------------------</text>
<text x="20" y="2716"> 1 ZolotarevAlexandr            2</text>
<text x="20" y="2734"> 2 AzaliaAlisheva               1</text>
<text x="20" y="2752"></text>
<text x="20" y="2770">one-zero-eight/fasie-2026-landing  commits 3</text>
<text x="20" y="2788">rk login                  commits</text>
<text x="20" y="2806">--------------------------------------</text>
<text x="20" y="2824"> 1 ArtemSBulgakov               3</text>
<text x="20" y="2842"></text>
<text x="20" y="2860">one-zero-eight/rooms-bot  commits 2</text>
<text x="20" y="2878">rk login                  commits</text>
<text x="20" y="2896">--------------------------------------</text>
<text x="20" y="2914"> 1 ArtemSBulgakov               2</text>
<text x="20" y="2932"></text>
<text x="20" y="2950">one-zero-eight/apply-bot  commits 1</text>
<text x="20" y="2968">rk login                  commits</text>
<text x="20" y="2986">--------------------------------------</text>
<text x="20" y="3004"> 1 ArtemSBulgakov               1</text>
<text x="20" y="3022"></text>
</svg>