<?xml version="1.0" encoding="UTF-8"?>
<svg xmlns="http://www.w3.org/2000/svg" width="1100" height="4226" viewBox="0 0 1100 4226">
  <rect x="0" y="0" width="1100" height="4226" fill="white"/>
  <style>
    text {
      font-family: ui-monospace, SFMono-Regular, Menlo, Monaco, Consolas, "Liberation Mono", "Courier New", monospace;
      font-size: 14px;
      fill: #111;
      white-space: pre;
    }
  </style>
<text x="20" y="34">one-zero-eight leaderboard last 6 months 2025-12-07..2026-06-08</text>
<text x="20" y="52"></text>
<text x="20" y="70">Overall top contributors</text>
<text x="20" y="88">rk login                  commits  pr_m  pr_o issues</text>
<text x="20" y="106">------------------------------------------------------------</text>
<text x="20" y="124"> 1 ArtemSBulgakov             227     1     6     12</text>
<text x="20" y="142"> 2 dantetemplar               227    11    11     23</text>
<text x="20" y="160"> 3 ZolotarevAlexandr           61     2     2      6</text>
<text x="20" y="178"> 4 dofi4ka                     38     6     6      3</text>
<text x="20" y="196"> 5 danillatency                29     0     0     10</text>
<text x="20" y="214"> 6 github-actions[bot]         18     0     0      0</text>
<text x="20" y="232"> 7 GrigsyChudin                16     1     1      3</text>
<text x="20" y="250"> 8 cursoragent                 15     0     0      0</text>
<text x="20" y="268"> 9 dependabot[bot]             13    13   108      0</text>
<text x="20" y="286">10 PoweredDeveloper            13     0     0      1</text>
<text x="20" y="304">11 projacktor                  11     1     2      2</text>
<text x="20" y="322">12 poeticlama                  11     3     3      2</text>
<text x="20" y="340">13 keamka                      11     3     5      0</text>
<text x="20" y="358">14 thexayotbe                   9     0     0      0</text>
<text x="20" y="376">15 upconett                     7     1     1     65</text>
<text x="20" y="394">16 AzaliaAlisheva               3     1     0      0</text>
<text x="20" y="412">17 snyk-bot                     1     0     0      0</text>
<text x="20" y="430">18 evermake                     1     0     0      0</text>
<text x="20" y="448">19 arya23923                    1     1     1      0</text>
<text x="20" y="466"></text>
<text x="20" y="484">Per repository leaderboards</text>
<text x="20" y="502"></text>
<text x="20" y="520">one-zero-eight/website  commits 151</text>
<text x="20" y="538">rk login                  commits  pr_m  pr_o issues</text>
<text x="20" y="556">------------------------------------------------------------</text>
<text x="20" y="574"> 1 ArtemSBulgakov              80     0     1      4</text>
<text x="20" y="592"> 2 dofi4ka                     27     3     3      2</text>
<text x="20" y="610"> 3 keamka                      11     3     5      0</text>
<text x="20" y="628"> 4 PoweredDeveloper            10     0     0      0</text>
<text x="20" y="646"> 5 thexayotbe                   9     0     0      0</text>
<text x="20" y="664"> 6 poeticlama                   6     0     0      0</text>
<text x="20" y="682"> 7 dantetemplar                 6     0     0     10</text>
<text x="20" y="700"> 8 arya23923                    1     1     1      0</text>
<text x="20" y="718"> 9 danillatency                 1     0     0      0</text>
<text x="20" y="736"></text>
<text x="20" y="754">one-zero-eight/room-booking  commits 90</text>
<text x="20" y="772">rk login                  commits  pr_m  pr_o issues</text>
<text x="20" y="790">------------------------------------------------------------</text>
<text x="20" y="808"> 1 dantetemplar                56     0     0      4</text>
<text x="20" y="826"> 2 ArtemSBulgakov              25     0     0      2</text>
<text x="20" y="844"> 3 ZolotarevAlexandr            4     0     0      0</text>
<text x="20" y="862"> 4 dofi4ka                      3     1     1      0</text>
<text x="20" y="880"> 5 dependabot[bot]              2     2    15      0</text>
<text x="20" y="898"></text>
<text x="20" y="916">one-zero-eight/monorepo  commits 62</text>
<text x="20" y="934">rk login                  commits  pr_m  pr_o issues</text>
<text x="20" y="952">------------------------------------------------------------</text>
<text x="20" y="970"> 1 dantetemplar                49     1     1      3</text>
<text x="20" y="988"> 2 ArtemSBulgakov               8     0     0      1</text>
<text x="20" y="1006"> 3 cursoragent                  3     0     0      0</text>
<text x="20" y="1024"> 4 AzaliaAlisheva               1     0     0      0</text>
<text x="20" y="1042"> 5 dependabot[bot]              1     1    10      0</text>
<text x="20" y="1060"></text>
<text x="20" y="1078">one-zero-eight/printers  commits 47</text>
<text x="20" y="1096">rk login                  commits  pr_m  pr_o issues</text>
<text x="20" y="1114">------------------------------------------------------------</text>
<text x="20" y="1132"> 1 danillatency                28     0     0      9</text>
<text x="20" y="1150"> 2 ArtemSBulgakov              12     0     0      0</text>
<text x="20" y="1168"> 3 PoweredDeveloper             3     0     0      0</text>
<text x="20" y="1186"> 4 dantetemplar                 3     1     1      2</text>
<text x="20" y="1204"> 5 cursoragent                  1     0     0      0</text>
<text x="20" y="1222"></text>
<text x="20" y="1240">one-zero-eight/sport  commits 46</text>
<text x="20" y="1258">rk login                  commits  pr_m  pr_o issues</text>
<text x="20" y="1276">------------------------------------------------------------</text>
<text x="20" y="1294"> 1 ArtemSBulgakov              26     0     0      1</text>
<text x="20" y="1312"> 2 GrigsyChudin                15     0     0      3</text>
<text x="20" y="1330"> 3 dofi4ka                      3     0     0      0</text>
<text x="20" y="1348"> 4 cursoragent                  1     0     0      0</text>
<text x="20" y="1366"> 5 dantetemplar                 1     1     1      0</text>
<text x="20" y="1384"></text>
<text x="20" y="1402">one-zero-eight/parsers  commits 42</text>
<text x="20" y="1420">rk login                  commits  pr_m  pr_o issues</text>
<text x="20" y="1438">------------------------------------------------------------</text>
<text x="20" y="1456"> 1 ZolotarevAlexandr           23     2     2      1</text>
<text x="20" y="1474"> 2 dantetemplar                18     0     0      0</text>
<text x="20" y="1492"> 3 AzaliaAlisheva               1     1     0      0</text>
<text x="20" y="1510"></text>
<text x="20" y="1528">one-zero-eight/events  commits 38</text>
<text x="20" y="1546">rk login                  commits  pr_m  pr_o issues</text>
<text x="20" y="1564">------------------------------------------------------------</text>
<text x="20" y="1582"> 1 dantetemplar                17     0     0      0</text>
<text x="20" y="1600"> 2 ArtemSBulgakov              10     0     0      0</text>
<text x="20" y="1618"> 3 projacktor                   6     1     2      0</text>
<text x="20" y="1636"> 4 ZolotarevAlexandr            3     0     0      0</text>
<text x="20" y="1654"> 5 dependabot[bot]              2     2    11      0</text>
<text x="20" y="1672"></text>
<text x="20" y="1690">one-zero-eight/accounts  commits 37</text>
<text x="20" y="1708">rk login                  commits  pr_m  pr_o issues</text>
<text x="20" y="1726">------------------------------------------------------------</text>
<text x="20" y="1744"> 1 dantetemplar                25     0     0      2</text>
<text x="20" y="1762"> 2 ArtemSBulgakov               9     0     0      1</text>
<text x="20" y="1780"> 3 dependabot[bot]              2     2    13      0</text>
<text x="20" y="1798"> 4 ZolotarevAlexandr            1     0     0      1</text>
<text x="20" y="1816"></text>
<text x="20" y="1834">one-zero-eight/schedule-builder-backend  commits 26</text>
<text x="20" y="1852">rk login                  commits  pr_m  pr_o issues</text>
<text x="20" y="1870">------------------------------------------------------------</text>
<text x="20" y="1888"> 1 dantetemplar                19     0     0      0</text>
<text x="20" y="1906"> 2 ArtemSBulgakov               4     0     0      0</text>
<text x="20" y="1924"> 3 ZolotarevAlexandr            2     0     0      0</text>
<text x="20" y="1942"> 4 dependabot[bot]              1     1     2      0</text>
<text x="20" y="1960"></text>
<text x="20" y="1978">one-zero-eight/workshops  commits 21</text>
<text x="20" y="1996">rk login                  commits  pr_m  pr_o issues</text>
<text x="20" y="2014">------------------------------------------------------------</text>
<text x="20" y="2032"> 1 ZolotarevAlexandr           13     0     0      1</text>
<text x="20" y="2050"> 2 ArtemSBulgakov               6     0     0      0</text>
<text x="20" y="2068"> 3 cursoragent                  1     0     0      0</text>
<text x="20" y="2086"> 4 dantetemplar                 1     1     1      0</text>
<text x="20" y="2104"></text>
<text x="20" y="2122">one-zero-eight/search  commits 21</text>
<text x="20" y="2140">rk login                  commits</text>
<text x="20" y="2158">--------------------------------------</text>
<text x="20" y="2176"> 1 dantetemplar                 8</text>
<text x="20" y="2194"> 2 ArtemSBulgakov               6</text>
<text x="20" y="2212"> 3 cursoragent                  5</text>
<text x="20" y="2230"> 4 dofi4ka                      1</text>
<text x="20" y="2248"> 5 ZolotarevAlexandr            1</text>
<text x="20" y="2266"></text>
<text x="20" y="2284">one-zero-eight/contributors-leaderboard  commits 20</text>
<text x="20" y="2302">rk login                  commits</text>
<text x="20" y="2320">--------------------------------------</text>
<text x="20" y="2338"> 1 github-actions[bot]         18</text>
<text x="20" y="2356"> 2 dantetemplar                 2</text>
<text x="20" y="2374"></text>
<text x="20" y="2392">one-zero-eight/academic-tutorship-bot  commits 16</text>
<text x="20" y="2410">rk login                  commits</text>
<text x="20" y="2428">--------------------------------------</text>
<text x="20" y="2446"> 1 upconett                     7</text>
<text x="20" y="2464"> 2 ArtemSBulgakov               6</text>
<text x="20" y="2482"> 3 ZolotarevAlexandr            3</text>
<text x="20" y="2500"></text>
<text x="20" y="2518">one-zero-eight/1519  commits 13</text>
<text x="20" y="2536">rk login                  commits</text>
<text x="20" y="2554">--------------------------------------</text>
<text x="20" y="2572"> 1 dependabot[bot]              5</text>
<text x="20" y="2590"> 2 projacktor                   5</text>
<text x="20" y="2608"> 3 ArtemSBulgakov               2</text>
<text x="20" y="2626"> 4 ZolotarevAlexandr            1</text>
<text x="20" y="2644"></text>
<text x="20" y="2662">one-zero-eight/forms  commits 12</text>
<text x="20" y="2680">rk login                  commits</text>
<text x="20" y="2698">--------------------------------------</text>
<text x="20" y="2716"> 1 ArtemSBulgakov               5</text>
<text x="20" y="2734"> 2 dofi4ka                      4</text>
<text x="20" y="2752"> 3 dantetemplar                 1</text>
<text x="20" y="2770"> 4 cursoragent                  1</text>
<text x="20" y="2788"> 5 ZolotarevAlexandr            1</text>
<text x="20" y="2806"></text>
<text x="20" y="2824">one-zero-eight/fastapi-template  commits 11</text>
<text x="20" y="2842">rk login                  commits</text>
<text x="20" y="2860">--------------------------------------</text>
<text x="20" y="2878"> 1 ArtemSBulgakov               8</text>
<text x="20" y="2896"> 2 cursoragent                  1</text>
<text x="20" y="2914"> 3 ZolotarevAlexandr            1</text>
<text x="20" y="2932"> 4 dantetemplar                 1</text>
<text x="20" y="2950"></text>
<text x="20" y="2968">one-zero-eight/schedule-assistant  commits 11</text>
<text x="20" y="2986">rk login                  commits</text>
<text x="20" y="3004">--------------------------------------</text>
<text x="20" y="3022"> 1 dantetemplar                11</text>
<text x="20" y="3040"></text>
<text x="20" y="3058">one-zero-eight/.github  commits 9</text>
<text x="20" y="3076">rk login                  commits</text>
<text x="20" y="3094">--------------------------------------</text>
<text x="20" y="3112"> 1 ArtemSBulgakov               6</text>
<text x="20" y="3130"> 2 dantetemplar                 2</text>
<text x="20" y="3148"> 3 ZolotarevAlexandr            1</text>
<text x="20" y="3166"></text>
<text x="20" y="3184">one-zero-eight/guard  commits 8</text>
<text x="20" y="3202">rk login                  commits</text>
<text x="20" y="3220">--------------------------------------</text>
<text x="20" y="3238"> 1 ArtemSBulgakov               5</text>
<text x="20" y="3256"> 2 cursoragent                  1</text>
<text x="20" y="3274"> 3 ZolotarevAlexandr            1</text>
<text x="20" y="3292"> 4 dantetemplar                 1</text>
<text x="20" y="3310"></text>
<text x="20" y="3328">one-zero-eight/music-room  commits 6</text>
<text x="20" y="3346">rk login                  commits</text>
<text x="20" y="3364">--------------------------------------</text>
<text x="20" y="3382"> 1 ArtemSBulgakov               5</text>
<text x="20" y="3400"> 2 ZolotarevAlexandr            1</text>
<text x="20" y="3418"></text>
<text x="20" y="3436">one-zero-eight/sport-bot  commits 5</text>
<text x="20" y="3454">rk login                  commits</text>
<text x="20" y="3472">--------------------------------------</text>
<text x="20" y="3490"> 1 GrigsyChudin                 1</text>
<text x="20" y="3508"> 2 ZolotarevAlexandr            1</text>
<text x="20" y="3526"> 3 snyk-bot                     1</text>
<text x="20" y="3544"> 4 ArtemSBulgakov               1</text>
<text x="20" y="3562"> 5 evermake                     1</text>
<text x="20" y="3580"></text>
<text x="20" y="3598">one-zero-eight/board-games  commits 5</text>
<text x="20" y="3616">rk login                  commits</text>
<text x="20" y="3634">--------------------------------------</text>
<text x="20" y="3652"> 1 ZolotarevAlexandr            2</text>
<text x="20" y="3670"> 2 dantetemplar                 1</text>
<text x="20" y="3688"> 3 cursoragent                  1</text>
<text x="20" y="3706"> 4 AzaliaAlisheva               1</text>
<text x="20" y="3724"></text>
<text x="20" y="3742">one-zero-eight/browser-extension  commits 5</text>
<text x="20" y="3760">rk login                  commits</text>
<text x="20" y="3778">--------------------------------------</text>
<text x="20" y="3796"> 1 poeticlama                   5</text>
<text x="20" y="3814"></text>
<text x="20" y="3832">one-zero-eight/schedule-builder-frontend  commits 5</text>
<text x="20" y="3850">rk login                  commits</text>
<text x="20" y="3868">--------------------------------------</text>
<text x="20" y="3886"> 1 dantetemplar                 5</text>
<text x="20" y="3904"></text>
<text x="20" y="3922">one-zero-eight/chat-helper  commits 3</text>
<text x="20" y="3940">rk login                  commits</text>
<text x="20" y="3958">--------------------------------------</text>
<text x="20" y="3976"> 1 ArtemSBulgakov               2</text>
<text x="20" y="3994"> 2 ZolotarevAlexandr            1</text>
<text x="20" y="4012"></text>
<text x="20" y="4030">one-zero-eight/apply-bot  commits 1</text>
<text x="20" y="4048">rk login                  commits</text>
<text x="20" y="4066">--------------------------------------</text>
<text x="20" y="4084"> 1 ArtemSBulgakov               1</text>
<text x="20" y="4102"></text>
<text x="20" y="4120">one-zero-eight/aiogram-template  commits 1</text>
<text x="20" y="4138">rk login                  commits</text>
<text x="20" y="4156">--------------------------------------</text>
<text x="20" y="4174"> 1 ZolotarevAlexandr            1</text>
<text x="20" y="4192"></text>
</svg>