<?xml version="1.0" encoding="UTF-8"?>
<svg xmlns="http://www.w3.org/2000/svg" width="1100" height="4406" viewBox="0 0 1100 4406">
  <rect x="0" y="0" width="1100" height="4406" fill="white"/>
  <style>
    text {
      font-family: ui-monospace, SFMono-Regular, Menlo, Monaco, Consolas, "Liberation Mono", "Courier New", monospace;
      font-size: 14px;
      fill: #111;
      white-space: pre;
    }
  </style>
<text x="20" y="34">one-zero-eight leaderboard last 6 months 2025-09-07..2026-03-09</text>
<text x="20" y="52"></text>
<text x="20" y="70">Overall top contributors</text>
<text x="20" y="88">rk login                  commits  pr_m  pr_o issues</text>
<text x="20" y="106">------------------------------------------------------------</text>
<text x="20" y="124"> 1 ArtemSBulgakov             276     1     8     20</text>
<text x="20" y="142"> 2 dantetemplar               139     0     0     31</text>
<text x="20" y="160"> 3 ZolotarevAlexandr           87     2     2     21</text>
<text x="20" y="178"> 4 dofi4ka                     63     7     7     25</text>
<text x="20" y="196"> 5 danillatency                59     0     0     14</text>
<text x="20" y="214"> 6 PoweredDeveloper            44     0     0     13</text>
<text x="20" y="232"> 7 thexayotbe                  19     0     0      2</text>
<text x="20" y="250"> 8 poeticlama                  16     3     3      5</text>
<text x="20" y="268"> 9 upconett                    11     1     1      0</text>
<text x="20" y="286">10 GrigsyChudin                10     0     0      3</text>
<text x="20" y="304">11 evermake                    10     3     1      0</text>
<text x="20" y="322">12 projacktor                  10     1     1      2</text>
<text x="20" y="340">13 rTexty                       9     1     1      1</text>
<text x="20" y="358">14 FallenChromium               7     0     0      0</text>
<text x="20" y="376">15 github-actions[bot]          4     0     0      0</text>
<text x="20" y="394">16 xKatinJn                     3     0     0      0</text>
<text x="20" y="412">17 AzaliaAlisheva               2     1     1      0</text>
<text x="20" y="430">18 pe3ep                        2     1     1      0</text>
<text x="20" y="448">19 dependabot[bot]              2     5    85      0</text>
<text x="20" y="466">20 xiadnoring                   1     1     1      0</text>
<text x="20" y="484">21 snyk-bot                     1     0     0      0</text>
<text x="20" y="502">22 cursoragent                  1     0     0      0</text>
<text x="20" y="520">23 belyakova-anna               1     0     0      0</text>
<text x="20" y="538"></text>
<text x="20" y="556">Per repository leaderboards</text>
<text x="20" y="574"></text>
<text x="20" y="592">one-zero-eight/website  commits 229</text>
<text x="20" y="610">rk login                  commits  pr_m  pr_o issues</text>
<text x="20" y="628">------------------------------------------------------------</text>
<text x="20" y="646"> 1 ArtemSBulgakov             123     0     2      1</text>
<text x="20" y="664"> 2 PoweredDeveloper            41     0     0      7</text>
<text x="20" y="682"> 3 dofi4ka                     33     4     4     10</text>
<text x="20" y="700"> 4 thexayotbe                  19     0     0      2</text>
<text x="20" y="718"> 5 poeticlama                   7     0     0      0</text>
<text x="20" y="736"> 6 dantetemplar                 3     0     0     12</text>
<text x="20" y="754"> 7 pe3ep                        2     1     1      0</text>
<text x="20" y="772"> 8 xiadnoring                   1     1     1      0</text>
<text x="20" y="790"></text>
<text x="20" y="808">one-zero-eight/room-booking  commits 81</text>
<text x="20" y="826">rk login                  commits  pr_m  pr_o issues</text>
<text x="20" y="844">------------------------------------------------------------</text>
<text x="20" y="862"> 1 dantetemplar                50     0     0      4</text>
<text x="20" y="880"> 2 ArtemSBulgakov              25     0     0      2</text>
<text x="20" y="898"> 3 dofi4ka                      3     1     1      0</text>
<text x="20" y="916"> 4 ZolotarevAlexandr            3     0     0      0</text>
<text x="20" y="934"></text>
<text x="20" y="952">one-zero-eight/printers  commits 61</text>
<text x="20" y="970">rk login                  commits  pr_m  pr_o issues</text>
<text x="20" y="988">------------------------------------------------------------</text>
<text x="20" y="1006"> 1 danillatency                41     0     0     14</text>
<text x="20" y="1024"> 2 ArtemSBulgakov              11     0     0      4</text>
<text x="20" y="1042"> 3 dantetemplar                 6     0     0      3</text>
<text x="20" y="1060"> 4 PoweredDeveloper             3     0     0      0</text>
<text x="20" y="1078"></text>
<text x="20" y="1096">one-zero-eight/1519  commits 52</text>
<text x="20" y="1114">rk login                  commits  pr_m  pr_o issues</text>
<text x="20" y="1132">------------------------------------------------------------</text>
<text x="20" y="1150"> 1 ZolotarevAlexandr           21     0     0      0</text>
<text x="20" y="1168"> 2 projacktor                  10     0     0      0</text>
<text x="20" y="1186"> 3 evermake                     9     2     1      0</text>
<text x="20" y="1204"> 4 poeticlama                   4     0     0      0</text>
<text x="20" y="1222"> 5 ArtemSBulgakov               4     0     0      1</text>
<text x="20" y="1240"> 6 dantetemplar                 3     0     0      2</text>
<text x="20" y="1258"> 7 cursoragent                  1     0     0      0</text>
<text x="20" y="1276"></text>
<text x="20" y="1294">one-zero-eight/workshops  commits 42</text>
<text x="20" y="1312">rk login                  commits  pr_m  pr_o issues</text>
<text x="20" y="1330">------------------------------------------------------------</text>
<text x="20" y="1348"> 1 ZolotarevAlexandr           31     0     0     12</text>
<text x="20" y="1366"> 2 ArtemSBulgakov              11     0     0      0</text>
<text x="20" y="1384"></text>
<text x="20" y="1402">one-zero-eight/sport  commits 35</text>
<text x="20" y="1420">rk login                  commits  pr_m  pr_o issues</text>
<text x="20" y="1438">------------------------------------------------------------</text>
<text x="20" y="1456"> 1 ArtemSBulgakov              25     0     0      3</text>
<text x="20" y="1474"> 2 GrigsyChudin                10     0     0      3</text>
<text x="20" y="1492"></text>
<text x="20" y="1510">one-zero-eight/parsers  commits 33</text>
<text x="20" y="1528">rk login                  commits  pr_m  pr_o issues</text>
<text x="20" y="1546">------------------------------------------------------------</text>
<text x="20" y="1564"> 1 dantetemplar                16     0     0      0</text>
<text x="20" y="1582"> 2 ZolotarevAlexandr           13     2     2      1</text>
<text x="20" y="1600"> 3 ArtemSBulgakov               3     0     0      0</text>
<text x="20" y="1618"> 4 AzaliaAlisheva               1     1     1      0</text>
<text x="20" y="1636"></text>
<text x="20" y="1654">one-zero-eight/guard  commits 33</text>
<text x="20" y="1672">rk login                  commits  pr_m  pr_o issues</text>
<text x="20" y="1690">------------------------------------------------------------</text>
<text x="20" y="1708"> 1 dofi4ka                     27     0     0     15</text>
<text x="20" y="1726"> 2 dantetemplar                 4     0     0      0</text>
<text x="20" y="1744"> 3 ArtemSBulgakov               2     0     0      0</text>
<text x="20" y="1762"></text>
<text x="20" y="1780">one-zero-eight/maps  commits 30</text>
<text x="20" y="1798">rk login                  commits  pr_m  pr_o issues</text>
<text x="20" y="1816">------------------------------------------------------------</text>
<text x="20" y="1834"> 1 danillatency                18     0     0      0</text>
<text x="20" y="1852"> 2 ArtemSBulgakov               8     0     0      0</text>
<text x="20" y="1870"> 3 ZolotarevAlexandr            3     0     0      1</text>
<text x="20" y="1888"> 4 rTexty                       1     1     1      0</text>
<text x="20" y="1906"></text>
<text x="20" y="1924">one-zero-eight/accounts  commits 30</text>
<text x="20" y="1942">rk login                  commits  pr_m  pr_o issues</text>
<text x="20" y="1960">------------------------------------------------------------</text>
<text x="20" y="1978"> 1 dantetemplar                24     0     0      1</text>
<text x="20" y="1996"> 2 ArtemSBulgakov               5     0     0      0</text>
<text x="20" y="2014"> 3 dependabot[bot]              1     1    13      0</text>
<text x="20" y="2032"></text>
<text x="20" y="2050">one-zero-eight/schedule-builder-backend  commits 19</text>
<text x="20" y="2068">rk login                  commits</text>
<text x="20" y="2086">--------------------------------------</text>
<text x="20" y="2104"> 1 dantetemplar                17</text>
<text x="20" y="2122"> 2 dependabot[bot]              1</text>
<text x="20" y="2140"> 3 ArtemSBulgakov               1</text>
<text x="20" y="2158"></text>
<text x="20" y="2176">one-zero-eight/music-room  commits 13</text>
<text x="20" y="2194">rk login                  commits</text>
<text x="20" y="2212">--------------------------------------</text>
<text x="20" y="2230"> 1 ArtemSBulgakov               8</text>
<text x="20" y="2248"> 2 ZolotarevAlexandr            4</text>
<text x="20" y="2266"> 3 dantetemplar                 1</text>
<text x="20" y="2284"></text>
<text x="20" y="2302">one-zero-eight/aiogram-template  commits 11</text>
<text x="20" y="2320">rk login                  commits</text>
<text x="20" y="2338">--------------------------------------</text>
<text x="20" y="2356"> 1 upconett                    11</text>
<text x="20" y="2374"></text>
<text x="20" y="2392">one-zero-eight/club-fest-bot  commits 11</text>
<text x="20" y="2410">rk login                  commits</text>
<text x="20" y="2428">--------------------------------------</text>
<text x="20" y="2446"> 1 ZolotarevAlexandr           11</text>
<text x="20" y="2464"></text>
<text x="20" y="2482">one-zero-eight/.github  commits 10</text>
<text x="20" y="2500">rk login                  commits</text>
<text x="20" y="2518">--------------------------------------</text>
<text x="20" y="2536"> 1 ArtemSBulgakov               7</text>
<text x="20" y="2554"> 2 dantetemplar                 3</text>
<text x="20" y="2572"></text>
<text x="20" y="2590">one-zero-eight/student-affairs  commits 9</text>
<text x="20" y="2608">rk login                  commits</text>
<text x="20" y="2626">--------------------------------------</text>
<text x="20" y="2644"> 1 FallenChromium               7</text>
<text x="20" y="2662"> 2 ArtemSBulgakov               2</text>
<text x="20" y="2680"></text>
<text x="20" y="2698">one-zero-eight/sport-bot  commits 8</text>
<text x="20" y="2716">rk login                  commits</text>
<text x="20" y="2734">--------------------------------------</text>
<text x="20" y="2752"> 1 ArtemSBulgakov               6</text>
<text x="20" y="2770"> 2 snyk-bot                     1</text>
<text x="20" y="2788"> 3 evermake                     1</text>
<text x="20" y="2806"></text>
<text x="20" y="2824">one-zero-eight/search  commits 8</text>
<text x="20" y="2842">rk login                  commits</text>
<text x="20" y="2860">--------------------------------------</text>
<text x="20" y="2878"> 1 ArtemSBulgakov               7</text>
<text x="20" y="2896"> 2 belyakova-anna               1</text>
<text x="20" y="2914"></text>
<text x="20" y="2932">one-zero-eight/clubs  commits 8</text>
<text x="20" y="2950">rk login                  commits</text>
<text x="20" y="2968">--------------------------------------</text>
<text x="20" y="2986"> 1 ArtemSBulgakov               8</text>
<text x="20" y="3004"></text>
<text x="20" y="3022">one-zero-eight/broadcast  commits 8</text>
<text x="20" y="3040">rk login                  commits</text>
<text x="20" y="3058">--------------------------------------</text>
<text x="20" y="3076"> 1 rTexty                       8</text>
<text x="20" y="3094"></text>
<text x="20" y="3112">one-zero-eight/schedule-builder-frontend  commits 7</text>
<text x="20" y="3130">rk login                  commits</text>
<text x="20" y="3148">--------------------------------------</text>
<text x="20" y="3166"> 1 dantetemplar                 7</text>
<text x="20" y="3184"></text>
<text x="20" y="3202">one-zero-eight/browser-extension  commits 6</text>
<text x="20" y="3220">rk login                  commits</text>
<text x="20" y="3238">--------------------------------------</text>
<text x="20" y="3256"> 1 poeticlama                   5</text>
<text x="20" y="3274"> 2 ArtemSBulgakov               1</text>
<text x="20" y="3292"></text>
<text x="20" y="3310">one-zero-eight/contributors-leaderboard  commits 6</text>
<text x="20" y="3328">rk login                  commits</text>
<text x="20" y="3346">--------------------------------------</text>
<text x="20" y="3364"> 1 github-actions[bot]          4</text>
<text x="20" y="3382"> 2 dantetemplar                 2</text>
<text x="20" y="3400"></text>
<text x="20" y="3418">one-zero-eight/fastapi-template  commits 6</text>
<text x="20" y="3436">rk login                  commits</text>
<text x="20" y="3454">--------------------------------------</text>
<text x="20" y="3472"> 1 xKatinJn                     3</text>
<text x="20" y="3490"> 2 dantetemplar                 2</text>
<text x="20" y="3508"> 3 ArtemSBulgakov               1</text>
<text x="20" y="3526"></text>
<text x="20" y="3544">one-zero-eight/chat-helper  commits 5</text>
<text x="20" y="3562">rk login                  commits</text>
<text x="20" y="3580">--------------------------------------</text>
<text x="20" y="3598"> 1 ArtemSBulgakov               5</text>
<text x="20" y="3616"></text>
<text x="20" y="3634">one-zero-eight/fasie-2026-landing  commits 3</text>
<text x="20" y="3652">rk login                  commits</text>
<text x="20" y="3670">--------------------------------------</text>
<text x="20" y="3688"> 1 ArtemSBulgakov               3</text>
<text x="20" y="3706"></text>
<text x="20" y="3724">one-zero-eight/rooms-bot  commits 3</text>
<text x="20" y="3742">rk login                  commits</text>
<text x="20" y="3760">--------------------------------------</text>
<text x="20" y="3778"> 1 ArtemSBulgakov               3</text>
<text x="20" y="3796"></text>
<text x="20" y="3814">one-zero-eight/draw-108  commits 3</text>
<text x="20" y="3832">rk login                  commits</text>
<text x="20" y="3850">--------------------------------------</text>
<text x="20" y="3868"> 1 ArtemSBulgakov               2</text>
<text x="20" y="3886"> 2 dantetemplar                 1</text>
<text x="20" y="3904"></text>
<text x="20" y="3922">one-zero-eight/board-games  commits 2</text>
<text x="20" y="3940">rk login                  commits</text>
<text x="20" y="3958">--------------------------------------</text>
<text x="20" y="3976"> 1 ZolotarevAlexandr            1</text>
<text x="20" y="3994"> 2 AzaliaAlisheva               1</text>
<text x="20" y="4012"></text>
<text x="20" y="4030">one-zero-eight/apply-bot  commits 2</text>
<text x="20" y="4048">rk login                  commits</text>
<text x="20" y="4066">--------------------------------------</text>
<text x="20" y="4084"> 1 ArtemSBulgakov               2</text>
<text x="20" y="4102"></text>
<text x="20" y="4120">one-zero-eight/server  commits 1</text>
<text x="20" y="4138">rk login                  commits</text>
<text x="20" y="4156">--------------------------------------</text>
<text x="20" y="4174"> 1 ArtemSBulgakov               1</text>
<text x="20" y="4192"></text>
<text x="20" y="4210">one-zero-eight/rooms  commits 1</text>
<text x="20" y="4228">rk login                  commits</text>
<text x="20" y="4246">--------------------------------------</text>
<text x="20" y="4264"> 1 ArtemSBulgakov               1</text>
<text x="20" y="4282"></text>
<text x="20" y="4300">one-zero-eight/contest  commits 1</text>
<text x="20" y="4318">rk login                  commits</text>
<text x="20" y="4336">--------------------------------------</text>
<text x="20" y="4354"> 1 ArtemSBulgakov               1</text>
<text x="20" y="4372"></text>
</svg>