<?xml version="1.0" encoding="UTF-8"?>
<svg xmlns="http://www.w3.org/2000/svg" width="1100" height="1778" viewBox="0 0 1100 1778">
  <rect x="0" y="0" width="1100" height="1778" fill="white"/>
  <style>
    text {
      font-family: ui-monospace, SFMono-Regular, Menlo, Monaco, Consolas, "Liberation Mono", "Courier New", monospace;
      font-size: 14px;
      fill: #111;
      white-space: pre;
    }
  </style>
<text x="20" y="34">one-zero-eight leaderboard last 6 months 2025-10-05..2026-04-06</text>
<text x="20" y="52"></text>
<text x="20" y="70">Overall top contributors</text>
<text x="20" y="88">rk login                  commits  pr_m  pr_o issues</text>
<text x="20" y="106">------------------------------------------------------------</text>
<text x="20" y="124"> 1 ArtemSBulgakov              41     1     6     21</text>
<text x="20" y="142"> 2 dantetemplar                38     0     0     33</text>
<text x="20" y="160"> 3 ZolotarevAlexandr           32     2     2     21</text>
<text x="20" y="178"> 4 github-actions[bot]          9     0     0      0</text>
<text x="20" y="196"> 5 rTexty                       8     0     0      1</text>
<text x="20" y="214"> 6 FallenChromium               7     0     0      0</text>
<text x="20" y="232"> 7 xKatinJn                     3     0     0      0</text>
<text x="20" y="250"> 8 dofi4ka                      1     8     8     26</text>
<text x="20" y="268"> 9 AzaliaAlisheva               1     1     1      0</text>
<text x="20" y="286">10 dependabot[bot]              1     5    89      0</text>
<text x="20" y="304">11 snyk-bot                     1     0     0      0</text>
<text x="20" y="322">12 evermake                     1     3     1      0</text>
<text x="20" y="340"></text>
<text x="20" y="358">Per repository leaderboards</text>
<text x="20" y="376"></text>
<text x="20" y="394">one-zero-eight/workshops  commits 40</text>
<text x="20" y="412">rk login                  commits  pr_m  pr_o issues</text>
<text x="20" y="430">------------------------------------------------------------</text>
<text x="20" y="448"> 1 ZolotarevAlexandr           31     0     0     12</text>
<text x="20" y="466"> 2 ArtemSBulgakov               9     0     0      0</text>
<text x="20" y="484"></text>
<text x="20" y="502">one-zero-eight/accounts  commits 30</text>
<text x="20" y="520">rk login                  commits  pr_m  pr_o issues</text>
<text x="20" y="538">------------------------------------------------------------</text>
<text x="20" y="556"> 1 dantetemplar                24     0     0      1</text>
<text x="20" y="574"> 2 ArtemSBulgakov               5     0     0      0</text>
<text x="20" y="592"> 3 dependabot[bot]              1     1    13      0</text>
<text x="20" y="610"></text>
<text x="20" y="628">one-zero-eight/.github  commits 13</text>
<text x="20" y="646">rk login                  commits  pr_m  pr_o issues</text>
<text x="20" y="664">------------------------------------------------------------</text>
<text x="20" y="682"> 1 ArtemSBulgakov              10     0     0      0</text>
<text x="20" y="700"> 2 dantetemplar                 3     0     0      0</text>
<text x="20" y="718"></text>
<text x="20" y="736">one-zero-eight/contributors-leaderboard  commits 11</text>
<text x="20" y="754">rk login                  commits  pr_m  pr_o issues</text>
<text x="20" y="772">------------------------------------------------------------</text>
<text x="20" y="790"> 1 github-actions[bot]          9     0     0      0</text>
<text x="20" y="808"> 2 dantetemplar                 2     0     0      0</text>
<text x="20" y="826"></text>
<text x="20" y="844">one-zero-eight/student-affairs  commits 9</text>
<text x="20" y="862">rk login                  commits  pr_m  pr_o issues</text>
<text x="20" y="880">------------------------------------------------------------</text>
<text x="20" y="898"> 1 FallenChromium               7     0     0      0</text>
<text x="20" y="916"> 2 ArtemSBulgakov               2     0     0      0</text>
<text x="20" y="934"></text>
<text x="20" y="952">one-zero-eight/sport-bot  commits 8</text>
<text x="20" y="970">rk login                  commits  pr_m  pr_o issues</text>
<text x="20" y="988">------------------------------------------------------------</text>
<text x="20" y="1006"> 1 ArtemSBulgakov               6     1     3      0</text>
<text x="20" y="1024"> 2 snyk-bot                     1     0     0      0</text>
<text x="20" y="1042"> 3 evermake                     1     1     0      0</text>
<text x="20" y="1060"></text>
<text x="20" y="1078">one-zero-eight/broadcast  commits 8</text>
<text x="20" y="1096">rk login                  commits  pr_m  pr_o issues</text>
<text x="20" y="1114">------------------------------------------------------------</text>
<text x="20" y="1132"> 1 rTexty                       8     0     0      1</text>
<text x="20" y="1150"></text>
<text x="20" y="1168">one-zero-eight/schedule-builder-frontend  commits 7</text>
<text x="20" y="1186">rk login                  commits  pr_m  pr_o issues</text>
<text x="20" y="1204">------------------------------------------------------------</text>
<text x="20" y="1222"> 1 dantetemplar                 7     0     0      0</text>
<text x="20" y="1240"></text>
<text x="20" y="1258">one-zero-eight/fastapi-template  commits 6</text>
<text x="20" y="1276">rk login                  commits  pr_m  pr_o issues</text>
<text x="20" y="1294">------------------------------------------------------------</text>
<text x="20" y="1312"> 1 xKatinJn                     3     2     2      0</text>
<text x="20" y="1330"> 2 dantetemplar                 2     0     0      2</text>
<text x="20" y="1348"> 3 ArtemSBulgakov               1     0     0      0</text>
<text x="20" y="1366"></text>
<text x="20" y="1384">one-zero-eight/chat-helper  commits 5</text>
<text x="20" y="1402">rk login                  commits  pr_m  pr_o issues</text>
<text x="20" y="1420">------------------------------------------------------------</text>
<text x="20" y="1438"> 1 ArtemSBulgakov               5     0     0      0</text>
<text x="20" y="1456"></text>
<text x="20" y="1474">one-zero-eight/fasie-2026-landing  commits 3</text>
<text x="20" y="1492">rk login                  commits</text>
<text x="20" y="1510">--------------------------------------</text>
<text x="20" y="1528"> 1 ArtemSBulgakov               3</text>
<text x="20" y="1546"></text>
<text x="20" y="1564">one-zero-eight/board-games  commits 2</text>
<text x="20" y="1582">rk login                  commits</text>
<text x="20" y="1600">--------------------------------------</text>
<text x="20" y="1618"> 1 ZolotarevAlexandr            1</text>
<text x="20" y="1636"> 2 AzaliaAlisheva               1</text>
<text x="20" y="1654"></text>
<text x="20" y="1672">one-zero-eight/forms  commits 1</text>
<text x="20" y="1690">rk login                  commits</text>
<text x="20" y="1708">--------------------------------------</text>
<text x="20" y="1726"> 1 dofi4ka                      1</text>
<text x="20" y="1744"></text>
</svg>