<?xml version="1.0" encoding="UTF-8"?>
<svg xmlns="http://www.w3.org/2000/svg" width="1100" height="4154" viewBox="0 0 1100 4154">
  <rect x="0" y="0" width="1100" height="4154" fill="white"/>
  <style>
    text {
      font-family: ui-monospace, SFMono-Regular, Menlo, Monaco, Consolas, "Liberation Mono", "Courier New", monospace;
      font-size: 14px;
      fill: #111;
      white-space: pre;
    }
  </style>
<text x="20" y="34">one-zero-eight leaderboard last 6 months 2025-12-28..2026-06-29</text>
<text x="20" y="52"></text>
<text x="20" y="70">Overall top contributors</text>
<text x="20" y="88">rk login                  commits  pr_m  pr_o issues</text>
<text x="20" y="106">------------------------------------------------------------</text>
<text x="20" y="124"> 1 ArtemSBulgakov             209     1     5     14</text>
<text x="20" y="142"> 2 dantetemplar               198    11    11     23</text>
<text x="20" y="160"> 3 ZolotarevAlexandr           57     2     2      9</text>
<text x="20" y="178"> 4 dofi4ka                     48    14    15     19</text>
<text x="20" y="196"> 5 cursoragent                 27     0     0      0</text>
<text x="20" y="214"> 6 GrigsyChudin                24     1     1      8</text>
<text x="20" y="232"> 7 keamka                      24     5     8     42</text>
<text x="20" y="250"> 8 projacktor                  24     1     2      2</text>
<text x="20" y="268"> 9 github-actions[bot]         21     0     0      0</text>
<text x="20" y="286">10 dependabot[bot]             19    21   123      0</text>
<text x="20" y="304">11 danillatency                13     0     0      8</text>
<text x="20" y="322">12 poeticlama                  11     3     3      2</text>
<text x="20" y="340">13 PoweredDeveloper             8     1     1      2</text>
<text x="20" y="358">14 upconett                     8     1     1     65</text>
<text x="20" y="376">15 thexayotbe                   6     0     0      0</text>
<text x="20" y="394">16 AzaliaAlisheva               3     1     0      0</text>
<text x="20" y="412">17 l1berty-dev                  3     3     3      7</text>
<text x="20" y="430">18 rTexty                       2     2     2      0</text>
<text x="20" y="448">19 belyakova-anna               2     0     0      0</text>
<text x="20" y="466">20 Chugun0k                     1     1     1      0</text>
<text x="20" y="484">21 github-advanced-security[bot]       1     0     0      0</text>
<text x="20" y="502">22 ARCshekin                    1     0     0      1</text>
<text x="20" y="520">23 arya23923                    1     1     1      0</text>
<text x="20" y="538">24 Alyona-art                   1     1     1      0</text>
<text x="20" y="556">25 sweetlife999                 1     1     1      1</text>
<text x="20" y="574">26 snyk-bot                     1     0     0      0</text>
<text x="20" y="592">27 evermake                     1     0     0      0</text>
<text x="20" y="610"></text>
<text x="20" y="628">Per repository leaderboards</text>
<text x="20" y="646"></text>
<text x="20" y="664">one-zero-eight/website  commits 195</text>
<text x="20" y="682">rk login                  commits  pr_m  pr_o issues</text>
<text x="20" y="700">------------------------------------------------------------</text>
<text x="20" y="718"> 1 ArtemSBulgakov              98     0     1      5</text>
<text x="20" y="736"> 2 dofi4ka                     31     5     6      2</text>
<text x="20" y="754"> 3 keamka                      17     3     5     32</text>
<text x="20" y="772"> 4 projacktor                  13     0     0      0</text>
<text x="20" y="790"> 5 PoweredDeveloper             8     1     1      0</text>
<text x="20" y="808"> 6 poeticlama                   6     0     0      0</text>
<text x="20" y="826"> 7 dantetemplar                 6     0     0     10</text>
<text x="20" y="844"> 8 thexayotbe                   6     0     0      0</text>
<text x="20" y="862"> 9 ZolotarevAlexandr            2     0     0      3</text>
<text x="20" y="880">10 GrigsyChudin                 2     0     0      5</text>
<text x="20" y="898"></text>
<text x="20" y="916">one-zero-eight/monorepo  commits 141</text>
<text x="20" y="934">rk login                  commits  pr_m  pr_o issues</text>
<text x="20" y="952">------------------------------------------------------------</text>
<text x="20" y="970"> 1 dantetemplar                79     1     1      7</text>
<text x="20" y="988"> 2 cursoragent                 15     0     0      0</text>
<text x="20" y="1006"> 3 dofi4ka                     13     6     6     16</text>
<text x="20" y="1024"> 4 ArtemSBulgakov              10     0     0      3</text>
<text x="20" y="1042"> 5 keamka                       7     2     3     10</text>
<text x="20" y="1060"> 6 GrigsyChudin                 6     0     0      0</text>
<text x="20" y="1078"> 7 dependabot[bot]              4     4    19      0</text>
<text x="20" y="1096"> 8 l1berty-dev                  3     3     3      7</text>
<text x="20" y="1114"> 9 Chugun0k                     1     1     1      0</text>
<text x="20" y="1132">10 rTexty                       1     1     1      0</text>
<text x="20" y="1150"></text>
<text x="20" y="1168">one-zero-eight/parsers  commits 44</text>
<text x="20" y="1186">rk login                  commits  pr_m  pr_o issues</text>
<text x="20" y="1204">------------------------------------------------------------</text>
<text x="20" y="1222"> 1 ZolotarevAlexandr           25     2     2      1</text>
<text x="20" y="1240"> 2 dantetemplar                18     0     0      0</text>
<text x="20" y="1258"> 3 AzaliaAlisheva               1     1     0      0</text>
<text x="20" y="1276"></text>
<text x="20" y="1294">one-zero-eight/sport  commits 44</text>
<text x="20" y="1312">rk login                  commits  pr_m  pr_o issues</text>
<text x="20" y="1330">------------------------------------------------------------</text>
<text x="20" y="1348"> 1 ArtemSBulgakov              24     0     0      2</text>
<text x="20" y="1366"> 2 GrigsyChudin                15     0     0      3</text>
<text x="20" y="1384"> 3 dofi4ka                      3     0     0      0</text>
<text x="20" y="1402"> 4 cursoragent                  1     0     0      0</text>
<text x="20" y="1420"> 5 dantetemplar                 1     1     1      0</text>
<text x="20" y="1438"></text>
<text x="20" y="1456">one-zero-eight/events  commits 40</text>
<text x="20" y="1474">rk login                  commits  pr_m  pr_o issues</text>
<text x="20" y="1492">------------------------------------------------------------</text>
<text x="20" y="1510"> 1 dantetemplar                17     0     0      0</text>
<text x="20" y="1528"> 2 ArtemSBulgakov              10     0     0      0</text>
<text x="20" y="1546"> 3 projacktor                   6     1     2      0</text>
<text x="20" y="1564"> 4 ZolotarevAlexandr            5     0     0      0</text>
<text x="20" y="1582"> 5 dependabot[bot]              2     2    13      0</text>
<text x="20" y="1600"></text>
<text x="20" y="1618">one-zero-eight/accounts  commits 32</text>
<text x="20" y="1636">rk login                  commits  pr_m  pr_o issues</text>
<text x="20" y="1654">------------------------------------------------------------</text>
<text x="20" y="1672"> 1 dantetemplar                19     0     0      2</text>
<text x="20" y="1690"> 2 ArtemSBulgakov               9     0     0      1</text>
<text x="20" y="1708"> 3 dependabot[bot]              2     2    14      0</text>
<text x="20" y="1726"> 4 rTexty                       1     1     1      0</text>
<text x="20" y="1744"> 5 ZolotarevAlexandr            1     0     0      1</text>
<text x="20" y="1762"></text>
<text x="20" y="1780">one-zero-eight/schedule-builder-backend  commits 31</text>
<text x="20" y="1798">rk login                  commits  pr_m  pr_o issues</text>
<text x="20" y="1816">------------------------------------------------------------</text>
<text x="20" y="1834"> 1 dantetemplar                22     0     0      0</text>
<text x="20" y="1852"> 2 ArtemSBulgakov               4     0     0      0</text>
<text x="20" y="1870"> 3 cursoragent                  2     0     0      0</text>
<text x="20" y="1888"> 4 ZolotarevAlexandr            2     0     0      0</text>
<text x="20" y="1906"> 5 dependabot[bot]              1     1     2      0</text>
<text x="20" y="1924"></text>
<text x="20" y="1942">one-zero-eight/contributors-leaderboard  commits 23</text>
<text x="20" y="1960">rk login                  commits  pr_m  pr_o issues</text>
<text x="20" y="1978">------------------------------------------------------------</text>
<text x="20" y="1996"> 1 github-actions[bot]         21     0     0      0</text>
<text x="20" y="2014"> 2 dantetemplar                 2     0     0      0</text>
<text x="20" y="2032"></text>
<text x="20" y="2050">one-zero-eight/printers  commits 23</text>
<text x="20" y="2068">rk login                  commits  pr_m  pr_o issues</text>
<text x="20" y="2086">------------------------------------------------------------</text>
<text x="20" y="2104"> 1 danillatency                12     0     0      7</text>
<text x="20" y="2122"> 2 ArtemSBulgakov               9     0     0      0</text>
<text x="20" y="2140"> 3 cursoragent                  1     0     0      0</text>
<text x="20" y="2158"> 4 dantetemplar                 1     1     1      0</text>
<text x="20" y="2176"></text>
<text x="20" y="2194">one-zero-eight/search  commits 21</text>
<text x="20" y="2212">rk login                  commits  pr_m  pr_o issues</text>
<text x="20" y="2230">------------------------------------------------------------</text>
<text x="20" y="2248"> 1 dantetemplar                 8     1     1      0</text>
<text x="20" y="2266"> 2 ArtemSBulgakov               6     0     0      0</text>
<text x="20" y="2284"> 3 cursoragent                  5     0     0      0</text>
<text x="20" y="2302"> 4 dofi4ka                      1     1     1      0</text>
<text x="20" y="2320"> 5 ZolotarevAlexandr            1     0     0      0</text>
<text x="20" y="2338"></text>
<text x="20" y="2356">one-zero-eight/1519  commits 18</text>
<text x="20" y="2374">rk login                  commits</text>
<text x="20" y="2392">--------------------------------------</text>
<text x="20" y="2410"> 1 dependabot[bot]             10</text>
<text x="20" y="2428"> 2 projacktor                   5</text>
<text x="20" y="2446"> 3 ArtemSBulgakov               2</text>
<text x="20" y="2464"> 4 ZolotarevAlexandr            1</text>
<text x="20" y="2482"></text>
<text x="20" y="2500">one-zero-eight/workshops  commits 17</text>
<text x="20" y="2518">rk login                  commits</text>
<text x="20" y="2536">--------------------------------------</text>
<text x="20" y="2554"> 1 ZolotarevAlexandr            9</text>
<text x="20" y="2572"> 2 ArtemSBulgakov               6</text>
<text x="20" y="2590"> 3 cursoragent                  1</text>
<text x="20" y="2608"> 4 dantetemplar                 1</text>
<text x="20" y="2626"></text>
<text x="20" y="2644">one-zero-eight/academic-tutorship-bot  commits 17</text>
<text x="20" y="2662">rk login                  commits</text>
<text x="20" y="2680">--------------------------------------</text>
<text x="20" y="2698"> 1 upconett                     8</text>
<text x="20" y="2716"> 2 ArtemSBulgakov               6</text>
<text x="20" y="2734"> 3 ZolotarevAlexandr            3</text>
<text x="20" y="2752"></text>
<text x="20" y="2770">one-zero-eight/fastapi-template  commits 11</text>
<text x="20" y="2788">rk login                  commits</text>
<text x="20" y="2806">--------------------------------------</text>
<text x="20" y="2824"> 1 ArtemSBulgakov               8</text>
<text x="20" y="2842"> 2 cursoragent                  1</text>
<text x="20" y="2860"> 3 ZolotarevAlexandr            1</text>
<text x="20" y="2878"> 4 dantetemplar                 1</text>
<text x="20" y="2896"></text>
<text x="20" y="2914">one-zero-eight/schedule-assistant  commits 11</text>
<text x="20" y="2932">rk login                  commits</text>
<text x="20" y="2950">--------------------------------------</text>
<text x="20" y="2968"> 1 dantetemplar                11</text>
<text x="20" y="2986"></text>
<text x="20" y="3004">one-zero-eight/.github  commits 10</text>
<text x="20" y="3022">rk login                  commits</text>
<text x="20" y="3040">--------------------------------------</text>
<text x="20" y="3058"> 1 ArtemSBulgakov               7</text>
<text x="20" y="3076"> 2 dantetemplar                 2</text>
<text x="20" y="3094"> 3 ZolotarevAlexandr            1</text>
<text x="20" y="3112"></text>
<text x="20" y="3130">one-zero-eight/sport-bot  commits 6</text>
<text x="20" y="3148">rk login                  commits</text>
<text x="20" y="3166">--------------------------------------</text>
<text x="20" y="3184"> 1 sweetlife999                 1</text>
<text x="20" y="3202"> 2 GrigsyChudin                 1</text>
<text x="20" y="3220"> 3 ZolotarevAlexandr            1</text>
<text x="20" y="3238"> 4 snyk-bot                     1</text>
<text x="20" y="3256"> 5 ArtemSBulgakov               1</text>
<text x="20" y="3274"> 6 evermake                     1</text>
<text x="20" y="3292"></text>
<text x="20" y="3310">one-zero-eight/music-room  commits 6</text>
<text x="20" y="3328">rk login                  commits</text>
<text x="20" y="3346">--------------------------------------</text>
<text x="20" y="3364"> 1 ArtemSBulgakov               5</text>
<text x="20" y="3382"> 2 ZolotarevAlexandr            1</text>
<text x="20" y="3400"></text>
<text x="20" y="3418">one-zero-eight/server  commits 5</text>
<text x="20" y="3436">rk login                  commits</text>
<text x="20" y="3454">--------------------------------------</text>
<text x="20" y="3472"> 1 dantetemplar                 4</text>
<text x="20" y="3490"> 2 ArtemSBulgakov               1</text>
<text x="20" y="3508"></text>
<text x="20" y="3526">one-zero-eight/board-games  commits 5</text>
<text x="20" y="3544">rk login                  commits</text>
<text x="20" y="3562">--------------------------------------</text>
<text x="20" y="3580"> 1 ZolotarevAlexandr            2</text>
<text x="20" y="3598"> 2 dantetemplar                 1</text>
<text x="20" y="3616"> 3 cursoragent                  1</text>
<text x="20" y="3634"> 4 AzaliaAlisheva               1</text>
<text x="20" y="3652"></text>
<text x="20" y="3670">one-zero-eight/browser-extension  commits 5</text>
<text x="20" y="3688">rk login                  commits</text>
<text x="20" y="3706">--------------------------------------</text>
<text x="20" y="3724"> 1 poeticlama                   5</text>
<text x="20" y="3742"></text>
<text x="20" y="3760">one-zero-eight/schedule-builder-frontend  commits 5</text>
<text x="20" y="3778">rk login                  commits</text>
<text x="20" y="3796">--------------------------------------</text>
<text x="20" y="3814"> 1 dantetemplar                 5</text>
<text x="20" y="3832"></text>
<text x="20" y="3850">one-zero-eight/chat-helper  commits 3</text>
<text x="20" y="3868">rk login                  commits</text>
<text x="20" y="3886">--------------------------------------</text>
<text x="20" y="3904"> 1 ArtemSBulgakov               2</text>
<text x="20" y="3922"> 2 ZolotarevAlexandr            1</text>
<text x="20" y="3940"></text>
<text x="20" y="3958">one-zero-eight/apply-bot  commits 1</text>
<text x="20" y="3976">rk login                  commits</text>
<text x="20" y="3994">--------------------------------------</text>
<text x="20" y="4012"> 1 ArtemSBulgakov               1</text>
<text x="20" y="4030"></text>
<text x="20" y="4048">one-zero-eight/aiogram-template  commits 1</text>
<text x="20" y="4066">rk login                  commits</text>
<text x="20" y="4084">--------------------------------------</text>
<text x="20" y="4102"> 1 ZolotarevAlexandr            1</text>
<text x="20" y="4120"></text>
</svg>