<?xml version="1.0" encoding="UTF-8"?>
<svg xmlns="http://www.w3.org/2000/svg" width="1100" height="4298" viewBox="0 0 1100 4298">
  <rect x="0" y="0" width="1100" height="4298" fill="white"/>
  <style>
    text {
      font-family: ui-monospace, SFMono-Regular, Menlo, Monaco, Consolas, "Liberation Mono", "Courier New", monospace;
      font-size: 14px;
      fill: #111;
      white-space: pre;
    }
  </style>
<text x="20" y="34">one-zero-eight leaderboard last 6 months 2026-01-04..2026-07-06</text>
<text x="20" y="52"></text>
<text x="20" y="70">Overall top contributors</text>
<text x="20" y="88">rk login                  commits  pr_m  pr_o issues</text>
<text x="20" y="106">------------------------------------------------------------</text>
<text x="20" y="124"> 1 dantetemplar               255    11    11     23</text>
<text x="20" y="142"> 2 ArtemSBulgakov             225     1     5     14</text>
<text x="20" y="160"> 3 dofi4ka                     81    15    16     19</text>
<text x="20" y="178"> 4 ZolotarevAlexandr           62     2     2      9</text>
<text x="20" y="196"> 5 danillatency                50     0     0      8</text>
<text x="20" y="214"> 6 cursoragent                 32     0     0      0</text>
<text x="20" y="232"> 7 keamka                      27     5     8     69</text>
<text x="20" y="250"> 8 GrigsyChudin                25     2     2      8</text>
<text x="20" y="268"> 9 github-actions[bot]         22     0     0      0</text>
<text x="20" y="286">10 dependabot[bot]             19    21   128      0</text>
<text x="20" y="304">11 projacktor                  18     1     2      2</text>
<text x="20" y="322">12 PoweredDeveloper            15     1     2      2</text>
<text x="20" y="340">13 ci-bot                      14     0     0      0</text>
<text x="20" y="358">14 poeticlama                  10     2     2      2</text>
<text x="20" y="376">15 upconett                     8     1     1     65</text>
<text x="20" y="394">16 l1berty-dev                  6     6     6      7</text>
<text x="20" y="412">17 thexayotbe                   6     0     0      0</text>
<text x="20" y="430">18 AzaliaAlisheva               3     1     0      0</text>
<text x="20" y="448">19 ARCshekin                    3     2     2      1</text>
<text x="20" y="466">20 rTexty                       2     2     2      0</text>
<text x="20" y="484">21 belyakova-anna               2     0     0      0</text>
<text x="20" y="502">22 Chugun0k                     1     1     1      0</text>
<text x="20" y="520">23 github-advanced-security[bot]       1     0     0      0</text>
<text x="20" y="538">24 arya23923                    1     1     1      0</text>
<text x="20" y="556">25 Alyona-art                   1     1     1      0</text>
<text x="20" y="574">26 sweetlife999                 1     1     1      1</text>
<text x="20" y="592">27 snyk-bot                     1     0     0      0</text>
<text x="20" y="610">28 evermake                     1     0     0      0</text>
<text x="20" y="628"></text>
<text x="20" y="646">Per repository leaderboards</text>
<text x="20" y="664"></text>
<text x="20" y="682">one-zero-eight/website  commits 252</text>
<text x="20" y="700">rk login                  commits  pr_m  pr_o issues</text>
<text x="20" y="718">------------------------------------------------------------</text>
<text x="20" y="736"> 1 ArtemSBulgakov              98     0     1      5</text>
<text x="20" y="754"> 2 danillatency                39     0     0      0</text>
<text x="20" y="772"> 3 dofi4ka                     33     5     6      2</text>
<text x="20" y="790"> 4 keamka                      18     3     5     56</text>
<text x="20" y="808"> 5 PoweredDeveloper            15     1     2      0</text>
<text x="20" y="826"> 6 projacktor                  13     0     0      0</text>
<text x="20" y="844"> 7 dantetemplar                 9     0     0     10</text>
<text x="20" y="862"> 8 poeticlama                   6     0     0      0</text>
<text x="20" y="880"> 9 thexayotbe                   6     0     0      0</text>
<text x="20" y="898">10 ZolotarevAlexandr            3     0     0      3</text>
<text x="20" y="916"></text>
<text x="20" y="934">one-zero-eight/monorepo  commits 184</text>
<text x="20" y="952">rk login                  commits  pr_m  pr_o issues</text>
<text x="20" y="970">------------------------------------------------------------</text>
<text x="20" y="988"> 1 dantetemplar                89     1     1      7</text>
<text x="20" y="1006"> 2 dofi4ka                     36     7     7     16</text>
<text x="20" y="1024"> 3 cursoragent                 16     0     0      0</text>
<text x="20" y="1042"> 4 ArtemSBulgakov              10     0     0      3</text>
<text x="20" y="1060"> 5 keamka                       9     2     3     13</text>
<text x="20" y="1078"> 6 GrigsyChudin                 7     1     1      0</text>
<text x="20" y="1096"> 7 l1berty-dev                  6     6     6      7</text>
<text x="20" y="1114"> 8 dependabot[bot]              4     4    21      0</text>
<text x="20" y="1132"> 9 ZolotarevAlexandr            3     0     0      0</text>
<text x="20" y="1150">10 Chugun0k                     1     1     1      0</text>
<text x="20" y="1168"></text>
<text x="20" y="1186">one-zero-eight/room-booking  commits 98</text>
<text x="20" y="1204">rk login                  commits  pr_m  pr_o issues</text>
<text x="20" y="1222">------------------------------------------------------------</text>
<text x="20" y="1240"> 1 dantetemplar                60     0     0      2</text>
<text x="20" y="1258"> 2 ArtemSBulgakov              26     0     0      0</text>
<text x="20" y="1276"> 3 dofi4ka                      5     1     1      0</text>
<text x="20" y="1294"> 4 ZolotarevAlexandr            4     0     0      0</text>
<text x="20" y="1312"> 5 dependabot[bot]              2     2    20      0</text>
<text x="20" y="1330"> 6 cursoragent                  1     0     0      0</text>
<text x="20" y="1348"></text>
<text x="20" y="1366">one-zero-eight/parsers  commits 44</text>
<text x="20" y="1384">rk login                  commits  pr_m  pr_o issues</text>
<text x="20" y="1402">------------------------------------------------------------</text>
<text x="20" y="1420"> 1 ZolotarevAlexandr           25     2     2      1</text>
<text x="20" y="1438"> 2 dantetemplar                18     0     0      0</text>
<text x="20" y="1456"> 3 AzaliaAlisheva               1     1     0      0</text>
<text x="20" y="1474"></text>
<text x="20" y="1492">one-zero-eight/sport  commits 44</text>
<text x="20" y="1510">rk login                  commits  pr_m  pr_o issues</text>
<text x="20" y="1528">------------------------------------------------------------</text>
<text x="20" y="1546"> 1 ArtemSBulgakov              24     0     0      2</text>
<text x="20" y="1564"> 2 GrigsyChudin                15     0     0      3</text>
<text x="20" y="1582"> 3 dofi4ka                      3     0     0      0</text>
<text x="20" y="1600"> 4 cursoragent                  1     0     0      0</text>
<text x="20" y="1618"> 5 dantetemplar                 1     1     1      0</text>
<text x="20" y="1636"></text>
<text x="20" y="1654">one-zero-eight/accounts  commits 32</text>
<text x="20" y="1672">rk login                  commits  pr_m  pr_o issues</text>
<text x="20" y="1690">------------------------------------------------------------</text>
<text x="20" y="1708"> 1 dantetemplar                19     0     0      2</text>
<text x="20" y="1726"> 2 ArtemSBulgakov               9     0     0      1</text>
<text x="20" y="1744"> 3 dependabot[bot]              2     2    14      0</text>
<text x="20" y="1762"> 4 rTexty                       1     1     1      0</text>
<text x="20" y="1780"> 5 ZolotarevAlexandr            1     0     0      1</text>
<text x="20" y="1798"></text>
<text x="20" y="1816">one-zero-eight/schedule-builder-backend  commits 31</text>
<text x="20" y="1834">rk login                  commits  pr_m  pr_o issues</text>
<text x="20" y="1852">------------------------------------------------------------</text>
<text x="20" y="1870"> 1 dantetemplar                22     0     0      0</text>
<text x="20" y="1888"> 2 ArtemSBulgakov               4     0     0      0</text>
<text x="20" y="1906"> 3 cursoragent                  2     0     0      0</text>
<text x="20" y="1924"> 4 ZolotarevAlexandr            2     0     0      0</text>
<text x="20" y="1942"> 5 dependabot[bot]              1     1     2      0</text>
<text x="20" y="1960"></text>
<text x="20" y="1978">one-zero-eight/contributors-leaderboard  commits 24</text>
<text x="20" y="1996">rk login                  commits  pr_m  pr_o issues</text>
<text x="20" y="2014">------------------------------------------------------------</text>
<text x="20" y="2032"> 1 github-actions[bot]         22     0     0      0</text>
<text x="20" y="2050"> 2 dantetemplar                 2     0     0      0</text>
<text x="20" y="2068"></text>
<text x="20" y="2086">one-zero-eight/printers  commits 22</text>
<text x="20" y="2104">rk login                  commits  pr_m  pr_o issues</text>
<text x="20" y="2122">------------------------------------------------------------</text>
<text x="20" y="2140"> 1 danillatency                11     0     0      7</text>
<text x="20" y="2158"> 2 ArtemSBulgakov               9     0     0      0</text>
<text x="20" y="2176"> 3 cursoragent                  1     0     0      0</text>
<text x="20" y="2194"> 4 dantetemplar                 1     1     1      0</text>
<text x="20" y="2212"></text>
<text x="20" y="2230">one-zero-eight/search  commits 21</text>
<text x="20" y="2248">rk login                  commits  pr_m  pr_o issues</text>
<text x="20" y="2266">------------------------------------------------------------</text>
<text x="20" y="2284"> 1 dantetemplar                 8     1     1      0</text>
<text x="20" y="2302"> 2 ArtemSBulgakov               6     0     0      0</text>
<text x="20" y="2320"> 3 cursoragent                  5     0     0      0</text>
<text x="20" y="2338"> 4 dofi4ka                      1     1     1      0</text>
<text x="20" y="2356"> 5 ZolotarevAlexandr            1     0     0      0</text>
<text x="20" y="2374"></text>
<text x="20" y="2392">one-zero-eight/workshops  commits 19</text>
<text x="20" y="2410">rk login                  commits</text>
<text x="20" y="2428">--------------------------------------</text>
<text x="20" y="2446"> 1 ZolotarevAlexandr           11</text>
<text x="20" y="2464"> 2 ArtemSBulgakov               6</text>
<text x="20" y="2482"> 3 cursoragent                  1</text>
<text x="20" y="2500"> 4 dantetemplar                 1</text>
<text x="20" y="2518"></text>
<text x="20" y="2536">one-zero-eight/1519  commits 18</text>
<text x="20" y="2554">rk login                  commits</text>
<text x="20" y="2572">--------------------------------------</text>
<text x="20" y="2590"> 1 dependabot[bot]             10</text>
<text x="20" y="2608"> 2 projacktor                   5</text>
<text x="20" y="2626"> 3 ArtemSBulgakov               2</text>
<text x="20" y="2644"> 4 ZolotarevAlexandr            1</text>
<text x="20" y="2662"></text>
<text x="20" y="2680">one-zero-eight/infra  commits 17</text>
<text x="20" y="2698">rk login                  commits</text>
<text x="20" y="2716">--------------------------------------</text>
<text x="20" y="2734"> 1 ci-bot                      14</text>
<text x="20" y="2752"> 2 dofi4ka                      3</text>
<text x="20" y="2770"></text>
<text x="20" y="2788">one-zero-eight/academic-tutorship-bot  commits 17</text>
<text x="20" y="2806">rk login                  commits</text>
<text x="20" y="2824">--------------------------------------</text>
<text x="20" y="2842"> 1 upconett                     8</text>
<text x="20" y="2860"> 2 ArtemSBulgakov               6</text>
<text x="20" y="2878"> 3 ZolotarevAlexandr            3</text>
<text x="20" y="2896"></text>
<text x="20" y="2914">one-zero-eight/fastapi-template  commits 11</text>
<text x="20" y="2932">rk login                  commits</text>
<text x="20" y="2950">--------------------------------------</text>
<text x="20" y="2968"> 1 ArtemSBulgakov               8</text>
<text x="20" y="2986"> 2 cursoragent                  1</text>
<text x="20" y="3004"> 3 ZolotarevAlexandr            1</text>
<text x="20" y="3022"> 4 dantetemplar                 1</text>
<text x="20" y="3040"></text>
<text x="20" y="3058">one-zero-eight/schedule-assistant  commits 11</text>
<text x="20" y="3076">rk login                  commits</text>
<text x="20" y="3094">--------------------------------------</text>
<text x="20" y="3112"> 1 dantetemplar                11</text>
<text x="20" y="3130"></text>
<text x="20" y="3148">one-zero-eight/.github  commits 10</text>
<text x="20" y="3166">rk login                  commits</text>
<text x="20" y="3184">--------------------------------------</text>
<text x="20" y="3202"> 1 ArtemSBulgakov               7</text>
<text x="20" y="3220"> 2 dantetemplar                 2</text>
<text x="20" y="3238"> 3 ZolotarevAlexandr            1</text>
<text x="20" y="3256"></text>
<text x="20" y="3274">one-zero-eight/sport-bot  commits 6</text>
<text x="20" y="3292">rk login                  commits</text>
<text x="20" y="3310">--------------------------------------</text>
<text x="20" y="3328"> 1 sweetlife999                 1</text>
<text x="20" y="3346"> 2 GrigsyChudin                 1</text>
<text x="20" y="3364"> 3 ZolotarevAlexandr            1</text>
<text x="20" y="3382"> 4 snyk-bot                     1</text>
<text x="20" y="3400"> 5 ArtemSBulgakov               1</text>
<text x="20" y="3418"> 6 evermake                     1</text>
<text x="20" y="3436"></text>
<text x="20" y="3454">one-zero-eight/server  commits 6</text>
<text x="20" y="3472">rk login                  commits</text>
<text x="20" y="3490">--------------------------------------</text>
<text x="20" y="3508"> 1 dantetemplar                 5</text>
<text x="20" y="3526"> 2 ArtemSBulgakov               1</text>
<text x="20" y="3544"></text>
<text x="20" y="3562">one-zero-eight/music-room  commits 6</text>
<text x="20" y="3580">rk login                  commits</text>
<text x="20" y="3598">--------------------------------------</text>
<text x="20" y="3616"> 1 ArtemSBulgakov               5</text>
<text x="20" y="3634"> 2 ZolotarevAlexandr            1</text>
<text x="20" y="3652"></text>
<text x="20" y="3670">one-zero-eight/board-games  commits 5</text>
<text x="20" y="3688">rk login                  commits</text>
<text x="20" y="3706">--------------------------------------</text>
<text x="20" y="3724"> 1 ZolotarevAlexandr            2</text>
<text x="20" y="3742"> 2 dantetemplar                 1</text>
<text x="20" y="3760"> 3 cursoragent                  1</text>
<text x="20" y="3778"> 4 AzaliaAlisheva               1</text>
<text x="20" y="3796"></text>
<text x="20" y="3814">one-zero-eight/schedule-builder-frontend  commits 5</text>
<text x="20" y="3832">rk login                  commits</text>
<text x="20" y="3850">--------------------------------------</text>
<text x="20" y="3868"> 1 dantetemplar                 5</text>
<text x="20" y="3886"></text>
<text x="20" y="3904">one-zero-eight/browser-extension  commits 4</text>
<text x="20" y="3922">rk login                  commits</text>
<text x="20" y="3940">--------------------------------------</text>
<text x="20" y="3958"> 1 poeticlama                   4</text>
<text x="20" y="3976"></text>
<text x="20" y="3994">one-zero-eight/chat-helper  commits 3</text>
<text x="20" y="4012">rk login                  commits</text>
<text x="20" y="4030">--------------------------------------</text>
<text x="20" y="4048"> 1 ArtemSBulgakov               2</text>
<text x="20" y="4066"> 2 ZolotarevAlexandr            1</text>
<text x="20" y="4084"></text>
<text x="20" y="4102">one-zero-eight/apply-bot  commits 1</text>
<text x="20" y="4120">rk login                  commits</text>
<text x="20" y="4138">--------------------------------------</text>
<text x="20" y="4156"> 1 ArtemSBulgakov               1</text>
<text x="20" y="4174"></text>
<text x="20" y="4192">one-zero-eight/aiogram-template  commits 1</text>
<text x="20" y="4210">rk login                  commits</text>
<text x="20" y="4228">--------------------------------------</text>
<text x="20" y="4246"> 1 ZolotarevAlexandr            1</text>
<text x="20" y="4264"></text>
</svg>